<?xml version="1.0" encoding="utf-8"?>
<!-- Generator: Adobe Illustrator 21.0.0, SVG Export Plug-In . SVG Version: 6.00 Build 0)  -->
<svg version="1.1" id="图层_1" xmlns="http://www.w3.org/2000/svg" xmlns:xlink="http://www.w3.org/1999/xlink" x="0px" y="0px"
	 viewBox="0 0 150 150" style="enable-background:new 0 0 150 150;" xml:space="preserve">
<style type="text/css">
	.st0{fill:#755449;}
	.st1{fill:#4D4D4D;}
	.st2{fill:#6B6B6B;}
	.st3{fill:#5B3E31;}
	.st4{fill:#89665C;}
	.st5{fill:#FFD26E;}
	.st6{fill:#68483C;}
	.st7{fill:#E2C6BF;}
	.st8{fill:#B79A91;}
</style>
<path class="st0" d="M115.4,37.6c0-1.4,0.3-2.7,0.7-3.9c-11.2-7.2-25.7-10-39.1-10c-13.3,0-27.8,2.8-39.1,10
	c0.5,1.2,0.7,2.5,0.7,3.9c0,5.9-4.7,10.6-10.6,10.6c0.3,17.2,1.9,37.7,10.2,53.4c8.9,17,26.7,28.7,38.7,34.1
	c12-5.4,29.8-17.2,38.7-34.1c8.3-15.7,9.9-36.2,10.2-53.4C120.1,48.2,115.4,43.5,115.4,37.6z"/>
<g>
	<path class="st1" d="M126,48.7c0-0.2,0-0.3,0-0.5c-1.5,0-2.9-0.3-4.2-0.9C123.1,48.1,124.5,48.5,126,48.7z"/>
	<path class="st2" d="M39.4,102.1C31.2,86.4,29.5,66.2,29.2,49c7.6-1.1,12.1-7.5,9.8-14.8c11.2-7.2,25.7-10,39.1-10
		c11.4,0,23.6,2.1,34,7.2c-10.6-5.5-23.2-7.7-35-7.7c-13.3,0-27.8,2.8-39.1,10c0.5,1.2,0.7,2.5,0.7,3.9c0,5.9-4.7,10.6-10.6,10.6
		c0.3,17.2,1.9,37.7,10.2,53.4c8.3,15.8,24.4,27.1,36.2,33C62.9,128.6,47.5,117.5,39.4,102.1z"/>
</g>
<path class="st3" d="M107.4,37.9l-50.8,74.4l22.5,22.5c11.9-5.8,28.3-17.2,36.7-33.2c7-13.3,9.3-30.1,10-45.3L107.4,37.9z"/>
<path class="st4" d="M77.1,126.9c-11.4-5.8-24.8-16-31.6-29c-6.8-12.9-8.6-30-9.1-43.6c6.1-3,10.3-9.2,10.4-16.4
	c8.3-4.1,18.9-6.3,30.3-6.3s22,2.2,30.3,6.3c0.1,7.2,4.4,13.4,10.4,16.4c-0.5,13.6-2.3,30.7-9.1,43.6
	C101.9,110.9,88.5,121.1,77.1,126.9z"/>
<g>
	<path class="st5" d="M89.4,66C89.4,66,89.4,66,89.4,66c-0.2-0.1-0.3-0.2-0.5-0.3C89.1,65.8,89.3,65.9,89.4,66z"/>
</g>
<path class="st6" d="M108.7,97.9c6.8-12.9,8.6-30,9.1-43.6c-6.1-3-10.3-9.2-10.4-16.4c-8.3-4.1-18.9-6.3-30.3-6.3v95.2
	C88.5,121.1,101.9,110.9,108.7,97.9z"/>
<path class="st2" d="M46.3,98.3c-6.8-12.9-8.6-30-9.1-43.6c6.1-3,10.3-9.2,10.4-16.4c8.3-4.1,18.9-6.3,30.3-6.3
	c11.1,0,21.3,2.1,29.5,5.9c0,0,0,0,0-0.1c-8.3-4.1-18.9-6.3-30.3-6.3s-22,2.2-30.3,6.3c-0.1,7.2-4.4,13.4-10.4,16.4
	c0.5,13.6,2.3,30.7,9.1,43.6c6.5,12.3,18.8,22,29.7,28C64.4,119.9,52.6,110.3,46.3,98.3z"/>
<path class="st7" d="M99.9,80.7l-0.5-3.4l-0.9,3.3L94.5,78c0,0-0.4-2.4-1-3.4c-0.6-1-0.6-1-0.6-1l0,3.2l-3.6-2.4
	c-0.2-1.9-1-4.9-2.5-6.2c3.3,7.9,2.2,14.1,0.2,22.1l-2-5l0.9-3.9l-1.6,2.4l-2.2-5.4l1.3-3.2l-1.9,1.5l-2.1-5.1
	c-4.5,13.5-5.1,26.6-7.1,40.5h-6.5c4-13.9,4.9-27.6,11.6-40.8c-2.5,1.7-6.3,4.3-8.3,6.6l-0.1-3.2c0,0-1.2,1.9-1.5,2.7
	c-0.3,0.8-0.5,1.4-0.5,1.4l-2.9,1.4l0.2-3.1l-1.9,3.9L56.9,85c2.4-11.4,9.6-17.1,19.9-20.9l-5.4,1l-3.9-0.5l2.4-1.8
	c0,0-2.2,0.5-3.1,0.9c-0.9,0.4-1.3,0.6-1.3,0.6l-4.7-0.1l1.7-1.6c0,0-1.1,0.1-2.4,0.8c-1.3,0.6-1.6,0.8-1.6,0.8L53.4,64
	c0,0,5.1-4.5,9.3-5.2c4.2-0.7,7.7,0.2,9.7,1.3c2,1.1,4.6,2.8,4.6,2.8s-1.6-3.4-2.7-4.5c-1.2-1.1-2.5-2-2.5-2l2-0.2l-3.3-1.2L68,52.4
	l1.7,0.1l-3.1-1.3l-2.9-2.6c8.2,0.1,16,5.1,16.2,14c7-9.5,17-10.4,27.1-5.7l-7.3,1.6l-4.4-0.9l2.1,1.3l-4,1.2l-3.4-0.7l2.4,1.5
	l-5.7,2c7.4,4.1,16.3,9.4,17.7,18.7c0.2,1.4,0.3,1.6,0.3,1.6L99.9,80.7z"/>
<path class="st8" d="M47.1,100.6c0,0,18.6-7.4,29-1.3c10.4,6,31.4,3.6,31.4,3.6S97,116.6,86.7,122.2c-10.3,5.6-9.9,4.6-9.9,4.6
	S55.8,114,47.1,100.6z"/>
</svg>
