<?xml version="1.0" encoding="UTF-8"?>
<svg width="464px" height="160px" viewBox="0 0 464 160" version="1.1" xmlns="http://www.w3.org/2000/svg" xmlns:xlink="http://www.w3.org/1999/xlink">
    <!-- Generator: Sketch 48.1 (47250) - http://www.bohemiancoding.com/sketch -->
    <title>Logo_HengBan</title>
    <desc>Created with Sketch.</desc>
    <defs></defs>
    <g id="Page-1" stroke="none" stroke-width="1" fill="none" fill-rule="evenodd">
        <g id="棉花糖LOGO" transform="translate(167.000000, -237.000000)" fill="#fff">
            <g id="Logo_HengBan" transform="translate(-167.000000, 237.000000)">
                <g id="Group" transform="translate(148.000000, 44.000000)">
                    <path d="M297.508152,58.2175352 C302.913215,59.8633619 306.845959,64.8826717 306.845959,70.8203227 C306.845959,78.0961487 300.941616,83.9942203 293.658054,83.9942203 C286.374734,83.9942203 280.470391,78.0961487 280.470391,70.8203227 C280.470391,66.8648025 282.215928,63.3164897 284.979472,60.9016555 L284.99673,60.9230236 C285.466598,60.5439833 286.064082,60.3167048 286.715042,60.3167048 C288.226009,60.3167048 289.451118,61.5402693 289.451118,63.0498745 C289.451118,63.9189234 289.044936,64.6927873 288.412206,65.1934799 C286.90367,66.5974589 285.960288,68.5987724 285.960288,70.8203227 C285.960288,75.0672256 289.406878,78.5099122 293.658054,78.5099122 C297.909472,78.5099122 301.356063,75.0672256 301.356063,70.8203227 C301.356063,67.4237717 299.150867,64.5417539 296.092957,63.523857 C294.833818,63.2786099 293.883629,62.1711129 293.883629,60.8414365 C293.883629,59.3320741 295.108738,58.1082667 296.619705,58.1082667 C296.926225,58.1082667 297.221078,58.1585302 297.496241,58.2515299 L297.508152,58.2175352 Z M216.675533,24.2037041 L216.675776,24.2037041 C217.105536,24.2037041 217.457026,24.555063 217.457026,24.9841241 L217.457026,68.3112748 C217.457026,68.7405787 217.105536,69.0919376 216.675776,69.0919376 L216.675533,69.0919376 C216.245772,69.0919376 215.894283,68.7405787 215.894283,68.3112748 L215.894283,24.9841241 C215.894283,24.555063 216.245772,24.2037041 216.675533,24.2037041 Z M99.6217505,24.2037041 L99.6219936,24.2037041 C100.051754,24.2037041 100.403243,24.555063 100.403243,24.9841241 L100.403243,68.3112748 C100.403243,68.7405787 100.051754,69.0919376 99.6219936,69.0919376 L99.6217505,69.0919376 C99.1919901,69.0919376 98.8405006,68.7405787 98.8405006,68.3112748 L98.8405006,24.9841241 C98.8405006,24.555063 99.1919901,24.2037041 99.6217505,24.2037041 Z M241.003176,63.4874342 L241.003419,63.4874342 C242.507823,63.4874342 243.738523,62.258042 243.738523,60.7552357 L243.738523,50.6061334 C243.738523,49.1033272 242.507823,47.873935 241.003419,47.873935 L241.003176,47.873935 C239.498772,47.873935 238.268073,49.1033272 238.268073,50.6061334 L238.268073,60.7552357 C238.268073,62.258042 239.498772,63.4874342 241.003176,63.4874342 Z M176.921244,57.8178553 C176.929508,57.9052701 176.933884,57.9936562 176.933884,58.0832564 C176.933884,59.6016031 175.701483,60.8329378 174.181279,60.8329378 C172.661317,60.8329378 171.428673,59.6016031 171.428673,58.0832564 L171.428673,58.0830136 L171.428673,58.0827707 C171.428673,58.0261939 171.430618,57.9698599 171.434021,57.9140116 C171.710157,47.9955873 180.560351,45.2772295 180.560351,45.2772295 C191.6804,42.1652622 196.440579,51.1874419 196.440579,51.1874419 C202.246476,62.0540741 196.705533,71.6568339 196.705533,71.6568339 C189.982263,84.6614866 176.717788,83.9942203 176.717788,83.9942203 C166.871464,83.9942203 160.937465,77.4742895 160.937465,77.4742895 C156.917456,73.4313545 153.430272,65.8908559 154.377543,60.0299356 L158.798387,32.6700713 C159.038061,31.1864477 160.449366,30.1685508 161.934568,30.4079702 L161.934811,30.4079702 C163.420012,30.6473897 164.438748,32.0571963 164.199074,33.5408199 L159.844348,60.4908059 C159.286972,70.3334708 166.36878,74.9722834 166.36878,74.9722834 C175.897403,82.0618673 185.070161,76.3090015 185.070161,76.3090015 C194.626008,71.0514863 193.521466,60.3167048 193.521466,60.3167048 C192.66073,49.5877509 184.861358,50.0510494 184.861358,50.0510494 C177.779063,50.3810403 177.005592,56.4660824 176.921244,57.8178553 Z M50.8262083,12.3206319 C52.3374187,12.3206319 53.5625274,13.5444392 53.5625274,15.0538016 C53.5625274,15.9041535 53.1733609,16.663691 52.5637235,17.1651121 C45.9464353,22.7506757 48.9535423,30.746217 48.9535423,30.746217 C52.9752531,40.4912686 62.1190847,38.9381988 62.1190847,38.9381988 C72.6508867,37.2527927 73.0947455,27.3598644 73.0947455,27.3598644 C73.4724873,21.4549939 70.0358631,17.9346053 67.7509383,16.372794 C65.4660134,14.8107399 63.3821134,15.554737 63.3821134,15.554737 C58.2794387,17.2093051 59.6676521,22.1489704 59.6676521,22.1489704 C61.1890717,26.4920296 65.3495795,25.8628857 65.3495795,25.8628857 L65.3517672,25.8815828 C65.5440412,25.8388467 65.7440936,25.8160217 65.9492507,25.8160217 C67.4604611,25.8160217 68.6855698,27.0395862 68.6855698,28.5491914 C68.6855698,30.0403424 67.4903596,31.2522516 66.0044292,31.2816327 L66.0066169,31.3003298 C62.914433,31.7886386 59.5519473,30.0612248 59.5519473,30.0612248 C54.0756631,26.9868945 53.9966631,21.456208 53.9966631,21.456208 C53.8211614,12.745565 60.7736529,10.6529516 60.7736529,10.6529516 C67.1809224,8.24370225 71.5507197,12.3628824 71.5507197,12.3628824 C76.7163513,16.0845679 78.0027154,21.9930806 78.0027154,21.9930806 C80.961693,33.3438938 72.5057696,40.0466672 72.5057696,40.0466672 C62.6015928,48.5378019 52.2156371,42.3782144 52.2156371,42.3782144 C41.8583645,36.6119936 42.7801129,25.7422047 42.7801129,25.7422047 C42.9578023,17.615784 48.9406592,13.0656003 48.9866008,13.0306344 L48.9875731,13.0296631 C49.4734842,12.5889468 50.1183678,12.3206319 50.8262083,12.3206319 Z M48.9875731,13.0296631 L52.5642097,17.1648693 L52.5637235,17.1651121 L48.9875731,13.0296631 Z M258.909451,47.873935 L258.909695,47.873935 C260.414099,47.873935 261.644798,49.1033272 261.644798,50.6061334 L261.644798,50.6063763 C261.644798,52.1091825 260.414099,53.3385747 258.909695,53.3385747 L258.909451,53.3385747 C257.405047,53.3385747 256.174348,52.1091825 256.174348,50.6063763 L256.174348,50.6061334 C256.174348,49.1033272 257.405047,47.873935 258.909451,47.873935 Z M29.4689673,33.7863098 L29.4692104,33.7863098 C30.9736146,33.7863098 32.204314,35.015702 32.204314,36.5185083 L32.204314,36.5187511 C32.204314,38.0215574 30.9736146,39.2509496 29.4692104,39.2509496 L29.4689673,39.2509496 C27.964563,39.2509496 26.7338636,38.0215574 26.7338636,36.5187511 L26.7338636,36.5185083 C26.7338636,35.015702 27.964563,33.7863098 29.4689673,33.7863098 Z M265.518232,39.7368302 L265.518232,39.7365874 C265.518232,38.2337811 264.287533,37.004389 262.783128,37.004389 L252.800681,37.004389 L252.800681,8.66523589 C252.800681,7.16242961 251.569981,5.93303743 250.065577,5.93303743 L250.065334,5.93303743 C248.56093,5.93303743 247.33023,7.16242961 247.33023,8.66523589 L247.33023,37.004389 L236.993133,37.004389 C235.488729,37.004389 234.258029,38.2337811 234.258029,39.7365874 L234.258029,39.7368302 C234.258029,41.2396365 235.488729,42.4692715 236.993133,42.4692715 L247.33023,42.4692715 L247.33023,81.2620218 C247.33023,82.7648281 248.56093,83.9942203 250.065334,83.9942203 L250.065577,83.9942203 C251.569981,83.9942203 252.800681,82.7648281 252.800681,81.2620218 L252.800681,42.4692715 L262.783128,42.4692715 C264.287533,42.4692715 265.518232,41.2396365 265.518232,39.7368302 Z M316,38.606751 L316,38.6065082 C316,37.1037019 314.769301,35.8743097 313.264896,35.8743097 L310.198722,35.8743097 L310.198722,28.4819306 L310.198722,28.4816878 C310.198722,26.9788815 308.968022,25.7494893 307.463618,25.7494893 L307.463375,25.7494893 L295.395083,25.7494893 L295.395083,22.7327071 C295.395083,21.2299008 294.16414,20.0005086 292.659736,20.0005086 L292.659493,20.0005086 C291.155089,20.0005086 289.924389,21.2299008 289.924389,22.7327071 L289.924389,25.7494893 L283.627477,25.7494893 C282.123072,25.7494893 280.892373,26.9788815 280.892373,28.4816878 L280.892373,28.4819306 C280.892373,29.9847369 282.123072,31.214129 283.627477,31.214129 L289.924389,31.214129 L289.924389,35.8743097 L279.660215,35.8743097 C278.155811,35.8743097 276.925111,37.1037019 276.925111,38.6065082 L276.925111,38.606751 C276.925111,40.1095573 278.155811,41.3389495 279.660215,41.3389495 L289.924389,41.3389495 L289.924389,46.7824639 L283.627477,46.7824639 C282.123072,46.7824639 280.892373,48.0120989 280.892373,49.5149052 L280.892373,49.515148 C280.892373,51.0179543 282.123072,52.2473465 283.627477,52.2473465 L289.924389,52.2473465 L289.924389,53.3742691 C289.924389,54.8770754 291.155089,56.1064676 292.659493,56.1064676 L292.659736,56.1064676 C294.16414,56.1064676 295.395083,54.8770754 295.395083,53.3742691 L295.395083,52.2473465 L307.463375,52.2473465 L307.463618,52.2473465 C308.968022,52.2473465 310.198722,51.0179543 310.198722,49.515148 L310.198722,49.5149052 L310.198722,41.3389495 L313.264896,41.3389495 C314.769301,41.3389495 316,40.1095573 316,38.606751 Z M304.728271,35.8743097 L295.395083,35.8743097 L295.395083,31.214129 L304.728271,31.214129 L304.728271,35.8743097 Z M295.395083,41.3389495 L304.728271,41.3389495 L304.728271,46.7824639 L295.395083,46.7824639 L295.395083,41.3389495 Z M82.039497,53.878604 L82.039497,53.8783612 C82.039497,52.3755549 80.8087975,51.1461627 79.3043933,51.1461627 L62.674759,51.1461627 L62.674759,50.6202169 C62.674759,49.1174107 61.4440596,47.8880185 59.9396553,47.8880185 L59.9394123,47.8880185 C58.435008,47.8880185 57.2040655,49.1174107 57.2040655,50.6202169 L57.2040655,51.1461627 L51.7588952,51.1461627 C50.254491,51.1461627 49.0237916,52.3755549 49.0237916,53.8783612 L49.0237916,53.878604 C49.0237916,55.3814103 50.254491,56.6108025 51.7588952,56.6108025 L57.2040655,56.6108025 L57.2040655,81.2620218 C57.2040655,82.7648281 58.435008,83.9942203 59.9394123,83.9942203 L59.9396553,83.9942203 C61.4440596,83.9942203 62.674759,82.7648281 62.674759,81.2620218 L62.674759,56.6108025 L76.5688035,56.6108025 L76.5688035,71.8343345 C76.5688035,73.3371408 77.7995029,74.566533 79.3039072,74.566533 L79.3041502,74.566533 C80.8085545,74.566533 82.0392539,73.3371408 82.0392539,71.8343345 L82.0392539,53.896087 L82.039497,53.878604 Z M298.136749,3.50703363 L298.136749,3.50679081 C298.136749,2.00398453 296.90605,0.774592347 295.401646,0.774592347 L283.288141,0.774592347 C281.783737,0.774592347 280.553037,2.00398453 280.553037,3.50679081 L280.553037,3.50703363 C280.553037,5.00983991 281.783737,6.23923209 283.288141,6.23923209 L295.401646,6.23923209 C296.90605,6.23923209 298.136749,5.00983991 298.136749,3.50703363 Z M68.2074371,3.50703363 L68.2074371,3.50679081 C68.2074371,2.00398453 66.9767377,0.774592347 65.4723334,0.774592347 L53.3588287,0.774592347 C51.8544245,0.774592347 50.6237251,2.00398453 50.6237251,3.50679081 L50.6237251,3.50703363 C50.6237251,5.00983991 51.8544245,6.23923209 53.3588287,6.23923209 L65.4723334,6.23923209 C66.9767377,6.23923209 68.2074371,5.00983991 68.2074371,3.50703363 Z M40.4329603,67.2807513 L40.4332034,67.2807513 C41.9376076,67.2807513 43.1683071,66.0513592 43.1683071,64.5485529 L43.1683071,54.3994506 C43.1683071,52.8966443 41.9376076,51.6672521 40.4332034,51.6672521 L40.4329603,51.6672521 C38.9285561,51.6672521 37.6978567,52.8966443 37.6978567,54.3994506 L37.6978567,64.5485529 C37.6978567,66.0513592 38.9285561,67.2807513 40.4329603,67.2807513 Z M166.359786,24.3960167 L166.36003,24.3960167 C167.864434,24.3960167 169.095133,23.1666245 169.095133,21.6638182 L169.095133,15.7941565 L184.220363,15.7941565 C185.724767,15.7941565 186.95571,14.5647643 186.95571,13.061958 L186.95571,13.0617152 C186.95571,11.5589089 185.724767,10.3295168 184.220363,10.3295168 L169.095133,10.3295168 L169.095133,2.73219846 C169.095133,1.22939218 167.864434,0 166.36003,0 L166.359786,0 C164.855382,0 163.624683,1.22939218 163.624683,2.73219846 L163.624683,10.3295168 L142.861279,10.3295168 L142.861279,2.73219846 C142.861279,1.22939218 141.63058,0 140.125932,0 C138.621285,0 137.390586,1.22939218 137.390586,2.73219846 L137.390586,10.3295168 L124.029123,10.3295168 C122.524962,10.3295168 121.294019,11.5589089 121.294019,13.0617152 L121.294019,13.061958 C121.294019,14.5647643 122.524962,15.7941565 124.029123,15.7941565 L137.390586,15.7941565 L137.390586,21.6638182 C137.390586,23.1666245 138.621285,24.3960167 140.125932,24.3960167 C141.63058,24.3960167 142.861279,23.1666245 142.861279,21.6638182 L142.861279,15.7941565 L163.624683,15.7941565 L163.624683,21.6638182 C163.624683,23.1666245 164.855382,24.3960167 166.359786,24.3960167 Z M258.909451,31.6677148 L258.909695,31.6677148 C260.414099,31.6677148 261.644798,30.4383226 261.644798,28.9355163 L261.644798,18.786414 C261.644798,17.2836077 260.414099,16.0542156 258.909695,16.0542156 L258.909451,16.0542156 C257.405047,16.0542156 256.174348,17.2836077 256.174348,18.786414 L256.174348,28.9355163 C256.174348,30.4383226 257.405047,31.6677148 258.909451,31.6677148 Z M241.003176,31.6677148 L241.003419,31.6677148 C242.507823,31.6677148 243.738523,30.4383226 243.738523,28.9355163 L243.738523,18.786414 C243.738523,17.2836077 242.507823,16.0542156 241.003419,16.0542156 L241.003176,16.0542156 C239.498772,16.0542156 238.268073,17.2836077 238.268073,18.786414 L238.268073,28.9355163 C238.268073,30.4383226 239.498772,31.6677148 241.003176,31.6677148 Z M309.717672,14.7374086 L309.717672,14.7371657 C309.717672,13.2343595 308.486973,12.0049673 306.982568,12.0049673 L271.707461,12.0049673 C270.203057,12.0049673 268.972358,13.2343595 268.972358,14.7371657 L268.972358,14.7374086 C268.972358,16.2402148 270.203057,17.469607 271.707461,17.469607 L306.982568,17.469607 C308.486973,17.469607 309.717672,16.2402148 309.717672,14.7374086 Z M271.707461,68.3948045 L271.707704,68.3948045 C273.212109,68.3948045 274.442808,67.1654123 274.442808,65.6626061 L274.442808,28.1900622 C274.442808,26.687256 273.212109,25.4578638 271.707704,25.4578638 L271.707461,25.4578638 C270.203057,25.4578638 268.972358,26.687256 268.972358,28.1900622 L268.972358,65.6626061 C268.972358,67.1654123 270.203057,68.3948045 271.707461,68.3948045 Z M7.58716584,53.5262737 C9.09181315,53.5262737 10.3225126,52.2968816 10.3225126,50.7940753 L10.3225126,32.8383448 C10.3225126,31.3355385 9.09181315,30.1061463 7.58716584,30.1061463 C6.08251853,30.1061463 4.85181912,31.3355385 4.85181912,32.8383448 L4.85181912,50.7940753 C4.85181912,52.2968816 6.08251853,53.5262737 7.58716584,53.5262737 Z M0,21.9090653 L0,21.9088225 C0,20.4060162 1.23069941,19.176624 2.73510364,19.176624 L15.7929629,19.176624 L15.7929629,8.66523589 C15.7929629,7.16242961 17.0236623,5.93303743 18.5280666,5.93303743 L18.5283096,5.93303743 C20.0327139,5.93303743 21.2634133,7.16242961 21.2634133,8.66523589 L21.2634133,19.176624 L30.4787096,19.176624 C31.9831138,19.176624 33.2138132,20.4060162 33.2138132,21.9088225 L33.2138132,21.9090653 C33.2138132,23.4118716 31.9831138,24.6412638 30.4787096,24.6412638 L21.2634133,24.6412638 L21.2634133,81.2620218 C21.2634133,82.7648281 20.0327139,83.9942203 18.5283096,83.9942203 L18.5280666,83.9942203 C17.0236623,83.9942203 15.7929629,82.7648281 15.7929629,81.2620218 L15.7929629,24.6412638 L2.73510364,24.6412638 C1.23069941,24.6412638 0,23.4118716 0,21.9090653 Z M139.541818,28.8845243 L139.541575,28.8845243 C138.324731,28.0009063 136.605447,28.2723779 135.720889,29.4879294 L117.684811,54.2731847 C116.800253,55.4887362 117.072256,57.2059516 118.2891,58.0895697 L118.2891,58.0898125 C119.506187,58.9734305 121.225229,58.701959 122.109786,57.4864075 L140.145865,32.7011521 C141.030422,31.4856006 140.758662,29.7681424 139.541818,28.8845243 Z M132.688988,48.7439552 L132.689231,48.7439552 C134.193636,48.7439552 135.424578,49.9733473 135.424578,51.4761536 L135.424578,81.1420692 C135.424578,82.6448755 134.193636,83.8742677 132.689231,83.8742677 L132.688988,83.8742677 C131.184584,83.8742677 129.953885,82.6448755 129.953885,81.1420692 L129.953885,51.4761536 C129.953885,49.9733473 131.184584,48.7439552 132.688988,48.7439552 Z" id="Shape"></path>
                    <path d="M173.71428,105.347422 C173.051838,105.936228 172.347272,106.493433 171.602748,107.017324 C170.773492,107.541215 170.317582,107.442604 170.235499,106.721874 L170.235499,101.123171 C170.317582,100.731395 170.071333,100.534365 169.490975,100.534365 L168.248416,100.534365 C167.917195,100.337525 167.917195,100.140495 168.248416,99.9457487 L169.740112,99.9457487 C170.648803,99.9457487 171.064755,100.272609 170.980024,100.926331 L170.980024,106.428518 C170.980024,106.820484 171.727196,106.296593 173.216245,104.854941 C173.71428,104.790026 173.878446,104.953552 173.71428,105.347422 Z M169.615664,96.7041739 C170.277865,97.1631495 170.980024,97.718451 171.727196,98.3742664 C171.891362,98.7660424 171.727196,98.9293776 171.229161,98.8644623 C170.402554,98.1437316 169.697747,97.5884301 169.117389,97.1945601 C168.953222,96.8027841 169.117389,96.6392586 169.615664,96.7041739 Z M172.720617,106.820484 L176.19675,106.820484 L176.19675,96.4087238 C176.445888,96.1469687 176.694785,96.1469687 176.941275,96.4087238 L176.941275,100.140495 L181.16458,100.140495 C181.4958,100.337525 181.4958,100.534365 181.16458,100.731395 L176.941275,100.731395 L176.941275,106.820484 L182.407139,106.820484 C182.738359,107.017324 182.738359,107.21226 182.407139,107.4091 L172.720617,107.4091 C172.389637,107.279269 172.389637,107.082239 172.720617,106.820484 Z M196.094065,96.4087238 C196.094065,96.0818631 196.300837,95.9499385 196.714141,96.0169478 C197.540749,96.9975299 198.163232,97.8817862 198.576776,98.6676225 L200.812757,98.6676225 C201.393115,98.1437316 201.930867,97.3578953 202.426254,96.3103039 C202.757475,96.1153677 203.006613,96.1804733 203.170779,96.507334 C202.924289,97.0310346 202.46862,97.7519556 201.806419,98.6676225 L203.419916,98.6676225 C204.744559,98.6676225 204.911373,99.6838033 203.917951,101.711977 C203.58673,101.909007 203.337593,101.844092 203.170779,101.517231 C204.000034,100.010664 204.0424,99.2583323 203.295227,99.2583323 L192.119898,99.2583323 C191.621863,99.2583323 191.372725,99.4532684 191.372725,99.8471384 L191.372725,101.418621 C191.126476,101.680566 190.877339,101.680566 190.628442,101.418621 L190.628442,99.6502986 C190.628442,98.9965772 191.041745,98.6676225 191.871001,98.6676225 L193.484498,98.6676225 C193.153277,98.2107409 192.657891,97.6198407 191.995449,96.9012041 C191.995449,96.6392586 192.159615,96.507334 192.490836,96.507334 C193.320091,97.29298 193.940167,98.0137107 194.353471,98.6676225 L197.707562,98.6676225 C197.294259,97.9487955 196.756506,97.1945601 196.094065,96.4087238 Z M192.864422,100.632975 L199.943784,100.632975 C201.183695,100.632975 201.68173,100.89492 201.432833,101.418621 C201.183695,101.680566 200.190274,102.105847 198.452087,102.694653 C197.871969,102.826768 197.789886,103.021514 198.20319,103.283459 C198.370004,103.415574 198.53417,103.578909 198.701225,103.775939 L204.662476,103.775939 C204.993696,103.972779 204.993696,104.167715 204.662476,104.364746 L199.074811,104.364746 C200.068232,106.656959 199.406032,107.868075 197.087727,108 C195.927251,107.997906 194.933589,107.735961 194.106981,107.214354 C193.940167,106.950315 194.064616,106.786789 194.47792,106.721874 C195.307175,107.245765 196.176148,107.474205 197.087727,107.4091 C198.825673,107.279269 199.196611,106.263089 198.20319,104.364746 L190.877339,104.364746 C190.546118,104.167715 190.546118,103.972779 190.877339,103.775939 L197.832252,103.775939 C197.665197,103.643824 197.458666,103.480489 197.209528,103.283459 C196.878307,102.891683 197.045362,102.564822 197.707562,102.302877 C200.025867,101.647062 200.730674,101.286696 199.819335,101.221781 L192.864422,101.221781 C192.533201,101.024751 192.533201,100.829815 192.864422,100.632975 Z M213.8772,96.605754 L224.432694,96.605754 C225.426116,96.605754 225.881785,96.9661193 225.799702,97.68685 L225.799702,105.640778 C225.635536,107.017324 224.80628,107.639635 223.317231,107.50771 C222.487976,107.442604 221.618762,107.279269 220.707424,107.017324 C220.458527,106.688369 220.582975,106.493433 221.08101,106.428518 C221.907618,106.688369 222.694507,106.853989 223.439032,106.918904 C224.432694,106.983819 224.973094,106.525034 225.055177,105.544261 L225.055177,97.7833662 C225.13726,97.3913999 224.888363,97.1945601 224.310653,97.1945601 L213.8772,97.1945601 C213.545979,96.9975299 213.545979,96.8027841 213.8772,96.605754 Z M215.739835,98.1772362 C215.657511,97.7833662 215.864284,97.6533454 216.362318,97.7833662 C217.93345,99.4218578 219.011843,100.69789 219.589313,101.615651 C219.589313,101.942512 219.382782,102.040932 218.969478,101.909007 C218.058139,100.59947 216.982394,99.3548485 215.739835,98.1772362 Z M223.192542,100.632975 C223.68817,100.56806 223.854984,100.731395 223.68817,101.123171 C220.543258,103.545405 217.313615,105.282506 214.001648,106.330098 C213.588345,106.263089 213.503614,106.068152 213.752751,105.739198 C216.982394,104.758616 220.127306,103.055209 223.192542,100.632975 Z M235.512461,96.4087238 L248.675115,96.4087238 C249.091066,96.605754 249.091066,96.8027841 248.675115,96.9975299 L242.467374,96.9975299 L242.467374,98.3742664 L246.812479,98.3742664 C247.805901,98.3742664 248.261811,98.7346318 248.179487,99.4532684 L248.179487,102.694653 C248.261811,103.415574 247.805901,103.742435 246.812479,103.677329 L242.467374,103.677329 C242.30056,104.660196 241.887015,105.477252 241.224815,106.133068 C242.63154,106.786789 245.281065,107.082239 249.173149,107.017324 C249.586453,107.21226 249.586453,107.4091 249.173149,107.60613 C245.363148,107.671045 242.507091,107.344185 240.604739,106.623454 C239.526586,107.21226 237.706317,107.60613 235.139115,107.80316 C234.807895,107.60613 234.807895,107.4091 235.139115,107.214354 C237.706317,106.950315 239.280097,106.623454 239.857566,106.231678 C239.113283,105.772702 238.326393,105.150391 237.499544,104.364746 C237.499544,104.037885 237.706317,103.90577 238.11962,103.972779 C238.948876,104.758616 239.733118,105.378832 240.48029,105.837618 C241.142732,105.313917 241.556035,104.592996 241.720202,103.677329 L237.250647,103.677329 C236.421392,103.742435 236.008088,103.415574 236.008088,102.694653 L236.008088,99.4532684 C236.008088,98.7346318 236.463757,98.3742664 237.375096,98.3742664 L241.720202,98.3742664 L241.720202,96.9975299 L235.512461,96.9975299 C235.181481,96.8027841 235.181481,96.605754 235.512461,96.4087238 Z M241.720202,98.9628822 L237.499544,98.9628822 C237.00151,98.9628822 236.752613,99.1599124 236.752613,99.5516884 L236.752613,100.632975 L241.720202,100.632975 L241.720202,98.9628822 Z M246.688031,98.9628822 L242.467374,98.9628822 L242.467374,100.632975 L247.434963,100.632975 L247.434963,99.5516884 C247.517286,99.1599124 247.268149,98.9628822 246.688031,98.9628822 Z M241.720202,101.221781 L236.752613,101.221781 L236.752613,102.497813 C236.752613,102.956598 237.00151,103.153629 237.499544,103.088713 L241.720202,103.088713 L241.720202,101.221781 Z M247.434963,101.221781 L242.467374,101.221781 L242.467374,103.088713 L246.688031,103.088713 C247.268149,103.153629 247.517286,102.956598 247.434963,102.497813 L247.434963,101.221781 Z M263.355703,96.211884 C263.769007,96.0818631 263.975538,96.1804733 263.975538,96.507334 L263.355703,97.3913999 L271.304038,97.3913999 C271.635018,97.5884301 271.635018,97.7833662 271.304038,97.9802061 L262.982117,97.9802061 C262.237592,98.7011271 261.657234,99.2248277 261.24393,99.5516884 L268.821326,99.5516884 C269.730258,99.5516884 270.146209,99.8785491 270.061238,100.534365 L270.061238,106.330098 C270.228292,107.180849 269.690299,107.639635 268.44774,107.70455 C268.034437,107.70455 267.32987,107.572625 266.336208,107.31068 C266.087071,107.048734 266.172042,106.853989 266.585346,106.721874 C267.32987,106.983819 267.909988,107.115744 268.323292,107.115744 C269.067816,107.115744 269.399037,106.853989 269.316954,106.330098 L269.316954,104.854941 L260.374957,104.854941 L260.374957,107.50771 C260.12582,107.834571 259.87957,107.834571 259.630433,107.50771 L259.630433,100.632975 C258.801177,101.156675 257.97457,101.548642 257.145314,101.810587 C256.649928,101.810587 256.525238,101.647062 256.774376,101.320201 C259.256847,100.207504 260.995033,99.0929031 261.988455,97.9802061 L257.394452,97.9802061 C256.980908,97.7833662 256.980908,97.5884301 257.394452,97.3913999 L262.362041,97.3913999 L263.355703,96.211884 Z M269.316954,100.731395 C269.399037,100.337525 269.152547,100.140495 268.57243,100.140495 L261.119482,100.140495 C260.624095,100.140495 260.374957,100.337525 260.374957,100.731395 L260.374957,101.909007 L269.316954,101.909007 L269.316954,100.731395 Z M269.316954,102.497813 L260.374957,102.497813 L260.374957,104.266135 L269.316954,104.266135 L269.316954,102.497813 Z M288.342407,96.3103039 C288.591545,96.0483584 288.840683,96.0483584 289.08958,96.3103039 L289.08958,98.0788163 L292.690161,98.0788163 C293.021382,98.2756562 293.021382,98.4726863 292.690161,98.6676225 L289.08958,98.6676225 L289.08958,101.024751 L293.434685,101.024751 C293.765906,101.221781 293.765906,101.418621 293.434685,101.615651 L289.460518,101.615651 C290.536263,103.711024 291.985595,105.378832 293.808271,106.623454 C293.972678,107.017324 293.808271,107.21226 293.310237,107.214354 C291.654374,106.099563 290.247408,104.528081 289.08958,102.497813 L289.08958,107.50771 C288.840683,107.834571 288.591545,107.834571 288.342407,107.50771 L288.342407,102.596233 C287.266903,104.49667 285.653405,106.001143 283.499267,107.115744 C283.085963,107.115744 282.961515,106.918904 283.128329,106.525034 C285.279819,105.412337 286.935682,103.775939 288.096158,101.615651 L284.36824,101.615651 C284.121991,101.418621 284.121991,101.221781 284.36824,101.024751 L288.342407,101.024751 L288.342407,98.6676225 L284.866515,98.6676225 C284.535295,98.4726863 284.535295,98.2756562 284.866515,98.0788163 L288.342407,98.0788163 L288.342407,96.3103039 Z M280.892348,97.1945601 L282.256708,97.1945601 C283.168046,97.1945601 283.58135,97.5214208 283.499267,98.1772362 L283.499267,105.248811 C283.58135,105.969732 283.168046,106.296593 282.256708,106.231678 L280.892348,106.231678 C280.063093,106.296593 279.649789,105.969732 279.649789,105.248811 L279.649789,98.1772362 C279.731872,97.5214208 280.147824,97.1945601 280.892348,97.1945601 Z M282.010218,97.7833662 L281.141245,97.7833662 C280.64321,97.7833662 280.394073,97.9802061 280.394073,98.3742664 L280.394073,105.051972 C280.394073,105.510757 280.64321,105.707787 281.141245,105.640778 L282.010218,105.640778 C282.587929,105.707787 282.837066,105.510757 282.754743,105.051972 L282.754743,98.3742664 C282.837066,97.9802061 282.587929,97.7833662 282.010218,97.7833662 Z M307.370749,96.605754 C307.286018,96.211884 307.492791,96.0818631 307.990825,96.211884 C308.570943,96.6706692 308.984247,97.1296448 309.233384,97.5884301 L311.840544,97.5884301 C312.171524,97.1296448 312.420662,96.6706692 312.584828,96.211884 C312.916049,96.0169478 313.165186,96.0818631 313.332,96.4087238 C313.165186,96.8676994 312.916049,97.2594754 312.584828,97.5884301 L315.441125,97.5884301 C315.93916,97.7833662 315.93916,97.9802061 315.441125,98.1772362 L310.473296,98.1772362 L310.226806,99.3548485 L313.454042,99.3548485 C314.36538,99.3548485 314.778684,99.6838033 314.696601,100.337525 L314.696601,104.660196 C314.778684,105.378832 314.36538,105.707787 313.454042,105.640778 L307.492791,105.640778 C306.665942,105.707787 306.252639,105.378832 306.252639,104.660196 L306.252639,100.435945 C306.252639,99.7152139 306.665942,99.3548485 307.492791,99.3548485 L309.479874,99.3548485 L309.728771,98.1772362 L305.505707,98.1772362 C305.092403,97.9802061 305.092403,97.7833662 305.505707,97.5884301 L308.364411,97.5884301 C308.115274,97.2594754 307.784053,96.9326147 307.370749,96.605754 Z M313.207552,99.9457487 L307.741688,99.9457487 C307.246301,99.9457487 306.997163,100.140495 306.997163,100.534365 L306.997163,101.123171 L313.952076,101.123171 L313.952076,100.534365 C314.034159,100.140495 313.785022,99.9457487 313.207552,99.9457487 Z M301.780437,100.534365 L303.272133,100.534365 C304.180824,100.534365 304.596776,100.861416 304.512045,101.517231 L304.512045,105.150391 C305.921659,106.459928 307.741688,107.082239 309.977909,107.017324 L315.690022,107.017324 C316.103326,107.21226 316.103326,107.4091 315.690022,107.60613 L309.977909,107.60613 C307.492791,107.60613 305.548072,106.983819 304.141106,105.739198 C303.892209,106.263089 303.272133,106.820484 302.278471,107.4091 C301.780437,107.474205 301.616271,107.31068 301.780437,106.918904 C302.774099,106.395013 303.4363,105.772702 303.76752,105.051972 L303.76752,101.711977 C303.849603,101.320201 303.603354,101.123171 303.022996,101.123171 L301.780437,101.123171 C301.367133,100.926331 301.367133,100.731395 301.780437,100.534365 Z M313.952076,101.711977 L306.997163,101.711977 L306.997163,103.088713 L313.952076,103.088713 L313.952076,101.711977 Z M313.952076,103.677329 L306.997163,103.677329 L306.997163,104.463165 C306.997163,104.921951 307.246301,105.116887 307.741688,105.051972 L313.207552,105.051972 C313.785022,105.116887 314.034159,104.921951 313.952076,104.463165 L313.952076,103.677329 Z M302.64941,96.605754 C303.478665,97.3264847 304.141106,97.9802061 304.636493,98.5690122 C304.721465,98.9628822 304.512045,99.0929031 304.016658,98.9628822 C303.518623,98.3742664 302.856182,97.718451 302.029574,96.9975299 C301.947491,96.6706692 302.154023,96.5408387 302.64941,96.605754 Z" id="Shape" fill-rule="nonzero"></path>
                </g>
                <path d="M65.7026054,93.3803443 C66.1784923,93.1010364 70.2650273,90.859614 74.6403248,93.5438319 C74.6403248,93.5438319 78.6870712,96.6922498 83.6078529,93.6469145 C83.6078529,93.6469145 84.2196513,93.2847467 84.7005283,93.7866341 C84.7005283,93.7866341 85.2360324,94.3042794 84.7151043,94.9856749 C84.7151043,94.9856749 82.3902966,98.3971175 78.6944249,99.6683818 C78.6944249,99.6683818 72.063129,102.637685 65.7026054,97.7788846 C59.3422131,102.637685 52.7107858,99.6683818 52.7107858,99.6683818 C49.0149142,98.3971175 46.6902378,94.9856749 46.6902378,94.9856749 C46.1691783,94.3042794 46.7046825,93.7866341 46.7046825,93.7866341 C47.1856908,93.2847467 47.7973579,93.6469145 47.7973579,93.6469145 C52.7182708,96.6922498 56.7648859,93.5438319 56.7648859,93.5438319 C61.1403147,90.859614 65.2268497,93.1010364 65.7026054,93.3803443 Z M52.1344426,159.376965 C61.2034774,155.733882 70.1119136,155.733882 79.1809484,159.376965 C86.8365044,148.35028 99.5595213,142.860509 99.5595213,142.860509 C115.181063,135.745447 131.315391,139.672959 131.315391,139.610453 L131.315391,118.83859 C125.524908,116.299082 119.147576,114.900442 112.653504,114.593558 C112.974439,114.198955 118.787903,106.833081 112.576685,98.4690783 C112.576685,98.4690783 122.192254,92.2935781 121.645063,79.3483755 C121.586628,74.5028376 118.571758,61.99938 104.337432,58.4680465 C101.73765,42.8579294 87.6062752,28.9844584 69.5184993,28.4964904 L69.5184993,16.1871169 L69.5120649,16.1871169 C71.8234784,14.8528212 73.3791718,12.3557278 73.3791718,9.49502198 C73.3791718,5.23042334 69.9221628,1.77341436 65.6576955,1.77341436 C61.3932282,1.77341436 57.9360879,5.23042334 57.9360879,9.49502198 C57.9360879,12.3557278 59.4919126,14.8528212 61.8033262,16.1871169 L61.7968917,16.1871169 L61.7968917,29.0438129 C55.0235125,30.2906526 43.4118177,34.3903191 35.9508712,47.8148228 C35.9508712,47.8148228 21.9927017,45.5969059 13.3782807,58.7033637 C12.9383742,59.2684138 3.69534642,73.7238747 16.0614481,87.7572879 L16.0642057,87.7567627 C15.8537072,88.3099944 10.2693888,103.417568 23.966372,114.582133 C23.9662407,114.582659 23.9703115,114.583709 23.9768772,114.585416 C15.6797143,114.225481 7.36534897,115.608494 0,118.83859 L0,139.610453 C0,139.672959 16.1343281,135.745447 31.7558697,142.860509 C31.7558697,142.860509 44.4788866,148.35028 52.1344426,159.376965 Z M104.699468,114.758359 C89.1169275,116.130342 73.9581414,123.642239 65.6576955,136.642988 C59.1617857,126.468671 48.4649653,119.656685 36.6524893,116.517854 C33.1602878,115.18973 25.9831138,111.67875 21.9555394,104.195349 C21.570654,103.363203 17.3608139,95.8165074 22.3867792,86.4646192 L22.3870418,86.4646192 L22.3869105,86.4644879 C22.2162005,86.320041 9.87255373,77.3919075 17.3302174,62.2516369 C17.3302174,62.2516369 24.1942042,49.8162007 38.9197809,53.629337 C39.0000146,53.6978836 45.6507452,34.3972788 67.6605179,33.6451042 C67.6605179,33.6451042 94.1224076,31.8139111 99.7286555,63.0242967 C99.7286555,63.0242967 116.031987,63.5072747 116.508924,81.1070826 C116.508924,81.1070826 115.811771,93.2741101 103.336283,97.9825548 C104.92323,98.6203536 109.831143,100.624358 110.253978,106.015774 C110.501376,109.170232 108.954481,112.315367 104.699468,114.758359 Z M126.167696,122.350883 L126.167696,133.555238 C112.555937,131.998888 101.182974,136.602149 101.182974,136.602149 C85.5799474,142.19671 77.3543513,153.355498 77.3543513,153.355498 C68.5555636,150.684805 62.7598275,150.684805 53.9609084,153.355498 C53.9609084,153.355498 45.7354436,142.19671 30.1324175,136.602149 C30.1324175,136.602149 18.7593228,131.998888 5.14769464,133.555238 L5.14769464,122.350883 C27.5217362,112.892104 54.5495953,125.597394 65.6576955,146.337346 C76.7657957,125.597394 103.793523,112.892104 126.167696,122.350883 Z M89.8193335,3.71530636 C89.8193335,3.71530636 93.2470592,5.17343246 93.39689,9.49502198 C93.39689,9.49502198 93.4219713,13.3698765 90.0005487,15.1822916 C89.2307779,15.4373061 88.6755765,16.1628236 88.6755765,17.0180807 C88.6755765,18.0859375 89.5412075,18.9515685 90.6091956,18.9515685 C90.9248778,18.9515685 91.2229637,18.8757996 91.4861198,18.7415952 L91.4878269,18.7450094 C93.6152675,17.6866074 97.0546802,15.1149268 97.283169,9.49502198 C97.283169,9.49502198 97.4156662,3.26752087 91.7445485,0.368470987 C91.4257147,0.136830637 91.0334756,0 90.6091956,0 C89.5412075,0 88.6755765,0.865631058 88.6755765,1.93361913 C88.6755765,2.72269332 89.1480492,3.40093731 89.8256366,3.70164956 L89.8193335,3.71530636 Z M41.4960575,3.71530636 C41.4960575,3.71530636 38.0683319,5.17343246 37.9183697,9.49502198 C37.9183697,9.49502198 37.8934198,13.3698765 41.3148423,15.1822916 C42.0846131,15.4373061 42.6398146,16.1628236 42.6398146,17.0180807 C42.6398146,18.0859375 41.7741835,18.9515685 40.7061954,18.9515685 C40.3905132,18.9515685 40.0924273,18.8757996 39.8292712,18.7415952 L39.8275641,18.7450094 C37.7001235,17.6866074 34.2607108,15.1149268 34.032222,9.49502198 C34.032222,9.49502198 33.8997248,3.26752087 39.5708426,0.368470987 C39.889545,0.136830637 40.2819154,0 40.7061954,0 C41.7741835,0 42.6398146,0.865631058 42.6398146,1.93361913 C42.6398146,2.72269332 42.1673418,3.40093731 41.4897544,3.70164956 L41.4960575,3.71530636 Z M79.1823929,5.76225067 C80.0342358,6.33714945 81.0779306,7.45333028 81.1561945,9.49502198 C81.1561945,9.49502198 81.1779929,11.8248196 79.3024152,13.1588527 C78.8952061,13.2824205 78.5988273,13.6606088 78.5988273,14.108263 C78.5988273,14.6561108 79.0429359,15.1002194 79.5909151,15.1002194 C79.8737684,15.1002194 80.1291769,14.981773 80.3098668,14.7917596 C81.5941314,13.9233709 82.975044,12.3347173 83.0866621,9.49502198 C83.0866621,9.49502198 83.1869871,6.00373968 80.1704099,4.10111098 C79.9922149,3.93013834 79.7504633,3.82495471 79.483893,3.82495471 C78.9359139,3.82495471 78.4918052,4.26906336 78.4918052,4.81704249 C78.4918052,5.25970667 78.7818809,5.63461211 79.1823929,5.76225067 Z M52.1329981,5.76225067 C51.2810239,6.33714945 50.2373291,7.45333028 50.1590652,9.49502198 C50.1590652,9.49502198 50.1373981,11.8248196 52.0129759,13.1588527 C52.4201849,13.2824205 52.7165637,13.6606088 52.7165637,14.108263 C52.7165637,14.6561108 52.2723238,15.1002194 51.7244759,15.1002194 C51.4414913,15.1002194 51.1862142,14.981773 51.0055242,14.7917596 C49.7211283,13.9233709 48.340347,12.3347173 48.2287289,9.49502198 C48.2287289,9.49502198 48.128404,6.00373968 51.1448498,4.10111098 C51.3231761,3.93013834 51.5649277,3.82495471 51.831498,3.82495471 C52.3794771,3.82495471 52.8235858,4.26906336 52.8235858,4.81704249 C52.8235858,5.25970667 52.5335101,5.63461211 52.1329981,5.76225067 Z M73.3644645,77.6748922 L73.3643332,77.6748922 C73.0772777,78.4206323 72.3542552,78.9498333 71.5074022,78.9498333 C70.408949,78.9498333 69.518368,78.0592524 69.518368,76.9607991 C69.518368,76.8771512 69.5236206,76.7945538 69.5336006,76.7135322 L69.5334693,76.7135322 L69.5336006,76.712613 C69.545025,76.6212175 69.5627526,76.531923 69.5859954,76.4448609 C70.7934404,70.6428217 76.6700668,66.0768542 82.7536463,66.2215638 C88.8370944,66.0768542 94.7137208,70.6428217 95.9211658,76.4448609 C95.9444086,76.531923 95.9621362,76.6212175 95.9735606,76.712613 L95.9736919,76.7135322 L95.9735606,76.7135322 C95.9835406,76.7945538 95.9887932,76.8770199 95.9887932,76.9607991 C95.9887932,78.0592524 95.0982122,78.9498333 93.999759,78.9498333 C93.152906,78.9498333 92.4298835,78.4206323 92.142828,77.6748922 L92.1426967,77.6748922 L92.1424341,77.6738417 C92.0791401,77.5091722 92.0372505,77.3337348 92.0197855,77.1512064 C90.2700079,70.3388266 83.4758809,70.1058731 82.7611312,70.0790847 L82.7536463,70.0790847 L82.74603,70.0790847 C82.0312803,70.1058731 75.2371533,70.3388266 73.4873757,77.1512064 C73.4699107,77.3337348 73.4280211,77.5091722 73.3647271,77.6738417 L73.3644645,77.6748922 Z M39.1726943,77.6748922 L39.172563,77.6748922 C38.8855075,78.4206323 38.1623537,78.9498333 37.315632,78.9498333 C36.2170475,78.9498333 35.3265978,78.0592524 35.3265978,76.9607991 C35.3265978,76.8771512 35.3318504,76.7945538 35.3418304,76.7135322 L35.3416991,76.7135322 L35.3418304,76.712613 C35.3531235,76.6212175 35.3709824,76.531923 35.3942252,76.4448609 C36.6016703,70.6428217 42.4782966,66.0768542 48.5617448,66.2215638 C54.6453242,66.0768542 60.5219506,70.6428217 61.7292643,76.4448609 C61.7526384,76.531923 61.770366,76.6212175 61.7816591,76.712613 L61.7817904,76.7135322 L61.7816591,76.7135322 C61.7917704,76.7945538 61.797023,76.8770199 61.797023,76.9607991 C61.797023,78.0592524 60.906442,78.9498333 59.8079888,78.9498333 C58.9611358,78.9498333 58.237982,78.4206323 57.9510578,77.6748922 L57.9509265,77.6748922 L57.9506639,77.6738417 C57.8873699,77.5091722 57.8453489,77.3337348 57.8280153,77.1512064 C56.0782377,70.3388266 49.2841107,70.1058731 48.569361,70.0790847 L48.5617448,70.0790847 L48.5541285,70.0790847 C47.8393788,70.1058731 41.0453831,70.3388266 39.2956055,77.1512064 C39.2781406,77.3337348 39.2362509,77.5091722 39.1729569,77.6738417 L39.1726943,77.6748922 Z" id="Shape"></path>
            </g>
        </g>
    </g>
</svg>