<?xml version="1.0" encoding="utf-8"?>
<!-- Generator: Adobe Illustrator 21.0.0, SVG Export Plug-In . SVG Version: 6.00 Build 0)  -->
<svg version="1.1" id="图层_1" xmlns="http://www.w3.org/2000/svg" xmlns:xlink="http://www.w3.org/1999/xlink" x="0px" y="0px"
	 viewBox="0 0 150 50" style="enable-background:new 0 0 150 50;" xml:space="preserve">
<style type="text/css">
	.st0{fill:#FFFFFF;}
	.st1{fill:#755449;}
	.st2{fill:#4D4D4D;}
	.st3{fill:#6B6B6B;}
	.st4{fill:#5B3E31;}
	.st5{fill:#89665C;}
	.st6{fill:#FFD26E;}
	.st7{fill:#68483C;}
	.st8{fill:#E2C6BF;}
	.st9{fill:#B79A91;}
</style>
<g>
	<path class="st0" d="M51.8,12.3h2.6v2h-2.6v2.1h0.8l1.8,2v9.1l0.6-0.1V10.8h-0.9V8.8h7.3v1.9h-0.8v15.7l0.9-0.1v1.8l-0.9,0.2v2.6
		h-2v-2.2l-4.1,0.8v-1.9h-1.9v-9.1h-0.7v12.4h-2V15.4l-0.9,14.7h-2L48,14.3h-1.1v-2h2.9V8.2h2V12.3z M57.2,14.5h1.4v-3.7h-1.4V14.5z
		 M57.2,20.3h1.4v-3.9h-1.4V20.3z M57.2,27.2l1.4-0.3v-4.6h-1.4V27.2z M67.7,10.7l-1.2,6.6l1,1.6v8.9L66,29.6l-1.5-0.8v-2l1.2,0.5
		V19h-1.4l1.3-8.3h-1.6v20.2h-2.1V10.7l1.9-2.1H66L67.7,10.7z"/>
	<path class="st0" d="M85.6,18.1h9.2V16l6.5-5.8H86.9V8.2h16.3l1.2,2.3l-7.3,6.5v1.2h8.7v1.9h-8.7v9L94.8,31h-3.1v-2h3v-8.9h-9.2
		V18.1z"/>
	<path class="st0" d="M128.7,14.2v2.2h0.9l1.8,1.9v9.3h-2v-9.1h-0.7v12.4h-1.8V15.4l-1,14.6h-1.9l1.1-15.8h-1v-1.9h2.8V8.2h1.8v4.1
		h2.7v1.9H128.7z M135.9,9.3l2,2v4.3l-2.5,7.1l2.3,7.7h-1.9l-1.6-4.7l-1.5,4.7h-2l2.6-7.8l-2.3-7.3h2.1l1.3,4.3l1.5-4.3v-3.9h-4.6
		V9.3H135.9z M140.9,25.7H139l-1.3-9.4h2L140.9,25.7z M143.2,8.3v2.6h1.1v1.9h-1.1v16l-1.8,2h-2.6v-2h2.5v-16h-2.9v-1.9h2.9V8.3
		H143.2z"/>
</g>
<g>
	<path class="st0" d="M50.2,38.7c0-0.7,0-1.1,0-1.4c0-0.2,0-0.5,0-0.7c0.2,0,0.5,0.1,0.8,0.1c-0.1,0.2-0.1,0.5-0.1,0.9
		c0,0.4,0,0.7,0,1.1h1.5c0.5,0,1,0,1.5-0.1v0.6c-0.4,0-0.8,0-1.2,0h-1.7c0.1,0.3,0.2,0.7,0.4,1c0.2,0.3,0.4,0.6,0.6,0.9
		c0.2,0.3,0.5,0.5,0.9,0.8c0.4,0.3,0.8,0.5,1.2,0.7c-0.2,0.1-0.3,0.3-0.5,0.6c-0.4-0.2-0.7-0.4-1-0.7c-0.3-0.3-0.7-0.7-1-1.2
		c-0.3-0.5-0.6-0.9-0.8-1.3c-0.2,0.4-0.3,0.8-0.5,1.1c-0.2,0.3-0.4,0.5-0.6,0.8c-0.2,0.2-0.5,0.5-0.8,0.7c-0.3,0.2-0.7,0.5-1.1,0.7
		c-0.2-0.2-0.3-0.4-0.5-0.6c0.4-0.1,0.8-0.3,1.2-0.6c0.4-0.3,0.7-0.5,1-0.9c0.3-0.3,0.5-0.7,0.6-1c0.2-0.4,0.3-0.7,0.3-1h-1.6
		c-0.5,0-0.8,0-1.1,0v-0.6c0.3,0,0.6,0,1.1,0.1H50.2z"/>
	<path class="st0" d="M57.9,37.3l-3.1,5.6l-0.3-0.2l3.1-5.6L57.9,37.3z"/>
	<path class="st0" d="M64.6,37.4c-0.5,0-1.1,0.1-2.1,0.2c-0.9,0.1-1.8,0.2-2.6,0.2v0.9h4.3c0.3,0,0.6,0,0.9,0v0.6
		c-0.3,0-0.6,0-0.9,0H60c0,0.4-0.1,0.8-0.1,1.2c0,0.4-0.1,0.9-0.3,1.4c-0.1,0.5-0.3,0.9-0.5,1.2c-0.1-0.1-0.3-0.2-0.7-0.3
		c0.3-0.3,0.5-0.7,0.7-1.3c0.2-0.6,0.2-1.3,0.3-2.1c0-0.8,0-1.5,0-2.1c1,0,2-0.1,3-0.2c1-0.1,1.7-0.3,1.8-0.4
		C64.3,36.9,64.4,37.1,64.6,37.4z M64.5,41.8c0,0.7,0,1.3,0.1,1.6H64v-0.6h-2.9v0.7h-0.6c0-0.3,0-0.9,0-1.6c0-0.8,0-1.3,0-1.6h4.1
		C64.5,40.5,64.5,41,64.5,41.8z M64,42.2v-1.6h-2.9v1.6H64z"/>
	<path class="st0" d="M69.2,37.3l-3.1,5.6l-0.3-0.2l3.1-5.6L69.2,37.3z"/>
	<path class="st0" d="M71.4,41.7c-0.6,0-1,0-1.3,0v-0.5c0.3,0,0.7,0,1.3,0V41c-0.6,0-1,0-1.3,0v-0.5c0.3,0,0.7,0,1.3,0v-0.4H70
		c0-0.3,0-0.5,0-0.7c0-0.2,0-0.4,0-0.6h1.4v-0.4h-0.9c0-0.2,0-0.5,0-0.9c-0.3,0-0.6,0-0.9,0v-0.5c0.2,0,0.5,0,0.9,0
		c0-0.1,0-0.3,0-0.5h0.6c0,0.2,0,0.4,0,0.5h1.2c0-0.1,0-0.3,0-0.5h0.6c0,0.2,0,0.4,0,0.5c0.3,0,0.6,0,0.8,0v0.5c-0.2,0-0.5,0-0.8,0
		c0,0.4,0,0.7,0,0.9h-0.9v0.4h1.4c0,0.2,0,0.4,0,0.6c0,0.2,0,0.4,0,0.7h-1.4v0.4c0.6,0,1.1,0,1.4,0V41c-0.3,0-0.8,0-1.4,0v0.4
		c0.6,0,1,0,1.4,0v0.5c-0.3,0-0.8,0-1.4,0v0.5c0.4,0,0.8-0.1,1.4-0.1l0,0.4c-0.7,0.1-1.3,0.2-1.9,0.3c-0.6,0.1-1,0.2-1.3,0.3
		c0-0.2-0.1-0.4-0.2-0.6c0.3,0,0.9-0.1,1.6-0.1V41.7z M71.4,39.8v-0.4h-0.8v0.4H71.4z M72.3,38.1v-0.4h-1.2v0.4H72.3z M72.8,39.8
		v-0.4h-0.9v0.4H72.8z M74.1,41.4c0.2-0.7,0.4-1.6,0.4-2.7c-0.3,0-0.6,0-0.8,0v-0.5c0.3,0,0.6,0,0.8,0c0-0.6,0-1.2-0.1-1.7
		c0.3,0,0.5,0.1,0.7,0.1c0,0.3-0.1,0.5-0.1,0.8v0.8h1.5c0,0.3,0,0.7-0.1,1.2l-0.1,3.1c0,0.3-0.1,0.5-0.3,0.5
		c-0.2,0.1-0.5,0.1-0.8,0.2c0-0.2-0.1-0.4-0.3-0.6c0.4,0,0.7,0,0.7-0.1c0.1,0,0.1-0.1,0.1-0.2l0.1-3.7H75c0,1.3-0.1,2.3-0.3,2.9
		c-0.2,0.6-0.5,1.2-1,1.9c-0.2-0.1-0.4-0.2-0.6-0.3C73.5,42.7,73.8,42.1,74.1,41.4z"/>
	<path class="st0" d="M80.5,37.3l-3.1,5.6l-0.3-0.2l3.1-5.6L80.5,37.3z"/>
	<path class="st0" d="M82.3,37.9c-0.2,0.4-0.4,0.8-0.6,1.2h0.8c0.2-0.4,0.4-0.8,0.4-1c0.2,0.2,0.4,0.3,0.6,0.4
		c-0.1,0.1-0.3,0.4-0.6,0.8c-0.2,0.4-0.6,1-1,1.6c0.2,0,0.6-0.1,1.3-0.2c-0.1,0.2-0.1,0.4-0.1,0.6c-0.2,0-0.5,0-0.8,0.1
		c-0.3,0.1-0.6,0.1-1,0.2c-0.1-0.2-0.1-0.4-0.2-0.6c0.2-0.1,0.4-0.2,0.5-0.5c0.2-0.3,0.3-0.6,0.5-0.9c-0.5,0-0.9,0.1-1.1,0.2
		L81,39.1c0.2-0.1,0.5-0.4,0.7-0.9c0.2-0.5,0.4-1,0.5-1.4c0.2,0.1,0.4,0.2,0.7,0.3C82.7,37.3,82.5,37.5,82.3,37.9z M82.3,42.3
		c0.3-0.1,0.7-0.1,1-0.2c0,0.2,0,0.3,0.1,0.5c-0.2,0-0.5,0.1-0.9,0.2c-0.4,0.1-0.8,0.2-1.1,0.4c-0.1-0.2-0.2-0.4-0.3-0.6
		C81.5,42.4,81.9,42.4,82.3,42.3z M83.9,42.3c0.2-0.3,0.4-0.6,0.5-0.9c0.1,0.1,0.3,0.2,0.5,0.4c-0.2,0.2-0.3,0.5-0.5,0.7
		c-0.1,0.2-0.4,0.5-0.8,1c-0.2-0.1-0.3-0.3-0.4-0.4C83.5,42.9,83.7,42.6,83.9,42.3z M85.9,36.6c0,0.2,0.1,0.5,0.2,1h1.7
		c0,0.2,0,0.4,0,0.6c0,0.2,0,0.4,0,0.6h-0.6V38h-2.9v0.8h-0.6c0-0.3,0-0.5,0-0.7c0-0.2,0-0.4,0-0.6h1.7c0-0.3-0.1-0.6-0.2-0.9
		L85.9,36.6z M86.9,40.3c0.4,0,0.7,0,1,0v0.6c-0.3,0-0.6,0-0.9,0h-0.9v1.9c0,0.3-0.1,0.5-0.3,0.6c-0.2,0.1-0.5,0.1-0.8,0.1
		c0-0.2,0-0.4-0.1-0.6c0.2,0,0.4,0,0.5,0c0.1,0,0.1-0.1,0.1-0.3v-1.8h-0.8c-0.3,0-0.6,0-0.9,0v-0.6c0.3,0,0.6,0,0.9,0H86.9z
		 M86.3,39.1c0.3,0,0.6,0,0.9,0v0.6c-0.3,0-0.6-0.1-0.9-0.1h-1c-0.3,0-0.6,0-0.9,0.1v-0.6c0.3,0,0.6,0,0.9,0H86.3z M88,42.7
		c-0.2,0.2-0.3,0.3-0.5,0.4c-0.2-0.2-0.3-0.4-0.5-0.6c-0.2-0.2-0.4-0.5-0.6-0.7c0.1-0.1,0.3-0.3,0.4-0.4C87.1,41.6,87.5,42,88,42.7z
		"/>
	<path class="st0" d="M91.8,37.3l-3.1,5.6l-0.3-0.2l3.1-5.6L91.8,37.3z"/>
	<path class="st0" d="M96,37c0.6,0.7,1,1.2,1.4,1.4c0.4,0.3,0.7,0.5,1,0.6c0.3,0.1,0.6,0.2,0.9,0.3c-0.2,0.2-0.3,0.4-0.4,0.6
		c-0.4-0.2-0.7-0.4-1.1-0.6c-0.3-0.2-0.6-0.4-1-0.8c-0.3-0.3-0.7-0.7-1.1-1.3c-0.4,0.5-0.7,1-1.1,1.3c-0.4,0.3-0.7,0.6-0.9,0.8
		c-0.3,0.2-0.5,0.4-0.9,0.6c0-0.1-0.2-0.2-0.5-0.5c0.4-0.2,0.8-0.4,1.2-0.7c0.4-0.3,0.7-0.6,1.1-1c0.4-0.4,0.7-0.9,0.9-1.4
		c0.2,0.1,0.4,0.2,0.6,0.3L96,37z M98,41.9c0,0.7,0,1.2,0,1.4h-0.6v-0.6h-3.3v0.6h-0.6c0-0.2,0-0.7,0-1.4c0-0.7,0-1.2,0-1.5H98
		C98,40.8,98,41.2,98,41.9z M96.7,39.4c0.3,0,0.6,0,0.8,0v0.6c-0.3,0-0.5,0-0.8,0h-1.7c-0.4,0-0.7,0-1,0v-0.6c0.4,0,0.7,0,1,0H96.7z
		 M97.4,42.3V41h-3.3v1.2H97.4z"/>
	<path class="st0" d="M103.1,37.3l-3.1,5.6l-0.3-0.2l3.1-5.6L103.1,37.3z"/>
	<path class="st0" d="M107.2,37.7c-0.3,0-0.7,0-1.1,0l0.3,0.6c-0.2,0.1-0.4,0.1-0.6,0.2c-0.1-0.3-0.1-0.5-0.2-0.8h-0.4
		c-0.2,0.2-0.3,0.4-0.5,0.5c-0.1,0.1-0.3,0.3-0.5,0.4c-0.1-0.2-0.3-0.3-0.5-0.4c0.4-0.3,0.7-0.5,0.9-0.8c0.2-0.3,0.4-0.6,0.5-0.9
		c0.2,0.1,0.4,0.2,0.7,0.2c-0.1,0.1-0.3,0.3-0.4,0.5h1c0.2,0,0.5,0,0.7,0V37.7z M107.5,38.7h2.9c0,0.3,0,0.5,0,0.6
		c0,0.1,0,0.3,0,0.5h-0.6v-0.7h-5.3v0.7h-0.6c0-0.2,0-0.4,0-0.5s0-0.4,0-0.6h3.1c-0.1-0.2-0.2-0.4-0.3-0.6c0.2,0,0.4-0.1,0.6-0.2
		C107.4,38.4,107.5,38.6,107.5,38.7z M109.2,40.4c0,0.1,0,0.4,0,0.6h-3.6v0.5h3.9c0,0.4,0,0.8,0,1c0,0.2,0,0.5,0,0.8h-0.6V43h-3.3
		v0.4H105c0-0.5,0-0.8,0-0.9v-1.9c0-0.3,0-0.7,0-1h4.2C109.2,40,109.2,40.2,109.2,40.4z M108.6,40.6v-0.5h-3v0.5H108.6z M108.9,42.6
		V42h-3.3v0.6H108.9z M109.2,38.4c-0.1-0.3-0.1-0.5-0.3-0.8h-0.6c-0.2,0.3-0.3,0.5-0.4,0.7c-0.2-0.1-0.4-0.2-0.6-0.3
		c0.2-0.2,0.4-0.4,0.6-0.7c0.1-0.2,0.2-0.5,0.3-0.8c0.2,0.1,0.5,0.1,0.7,0.2c-0.2,0.1-0.3,0.3-0.4,0.5h1.1c0.2,0,0.5,0,0.9,0v0.5
		c-0.3,0-0.7,0-1.1,0l0.3,0.6L109.2,38.4z"/>
	<path class="st0" d="M114.4,37.3l-3.1,5.6l-0.3-0.2l3.1-5.6L114.4,37.3z"/>
	<path class="st0" d="M116.7,37.4c0.2,0,0.5,0,0.7,0v0.6c-0.3,0-0.5,0-0.7,0h-0.3v1.6c0.3,0,0.5,0,0.8,0V40c-0.3,0-0.6,0-0.8,0v1.9
		c0.4-0.1,0.7-0.3,0.9-0.4c0,0.2,0.1,0.4,0.1,0.5c-0.4,0.1-0.8,0.3-1.3,0.5c-0.5,0.2-0.8,0.4-1.1,0.5c-0.1-0.2-0.2-0.4-0.3-0.6
		c0.3,0,0.6-0.1,1-0.3v-2c-0.4,0-0.7,0-0.9,0v-0.6c0.3,0,0.6,0,0.9,0v-1.6h-0.4c-0.2,0-0.4,0-0.6,0v-0.6c0.3,0,0.5,0,0.6,0H116.7z
		 M121.5,38.7c0,0.8,0,1.5,0,1.8h-1.6v0.9h0.9c0.4,0,0.6,0,0.8,0v0.5c-0.2,0-0.5,0-0.8,0h-0.9v1h1.1c0.4,0,0.7,0,0.9,0v0.5
		c-0.3,0-0.6,0-0.9,0h-2.9c-0.3,0-0.6,0-0.8,0v-0.5c0.3,0,0.5,0,0.8,0h1.2v-1h-1c-0.3,0-0.5,0-0.7,0v-0.5c0.2,0,0.4,0,0.7,0h1v-0.9
		h-1.6c0-0.3,0-0.9,0-1.8c0-0.9,0-1.5,0-1.7h3.8C121.5,37.2,121.5,37.8,121.5,38.7z M119.4,38.5v-1.1h-1v1.1H119.4z M119.4,40v-1.1
		h-1V40H119.4z M121,38.5v-1.1h-1v1.1H121z M121,40v-1.1h-1V40H121z"/>
	<path class="st0" d="M125.8,37.3l-3.1,5.6l-0.3-0.2l3.1-5.6L125.8,37.3z"/>
	<path class="st0" d="M131.3,37c0.3,0,0.7,0,1.1,0v0.6c-0.4,0-0.8,0-1.1,0h-1.2v2.8h1.8c0.4,0,0.8,0,1.2,0v0.6c-0.4,0-0.8,0-1.2,0
		h-1.8v1.4c0,0.4,0,0.8,0,1.2h-0.7c0-0.4,0-0.8,0-1.2v-1.4h-2.2c-0.3,0-0.6,0-0.9,0v-0.6c0.3,0,0.6,0,0.9,0h2.1v-2.8h-1.4
		c-0.3,0-0.6,0-1.1,0V37c0.4,0,0.8,0,1,0H131.3z M127.2,38.3c0.2-0.1,0.3-0.2,0.5-0.4c0.5,0.6,0.9,1.1,1.2,1.6
		c-0.2,0.2-0.4,0.3-0.6,0.4C128,39.3,127.7,38.8,127.2,38.3z M131.8,37.8c0.2,0.1,0.4,0.3,0.6,0.4c-0.5,0.8-0.9,1.4-1.2,1.8
		c-0.2-0.1-0.3-0.3-0.5-0.4C131.1,39.1,131.5,38.5,131.8,37.8z"/>
	<path class="st0" d="M137.1,37.3l-3.1,5.6l-0.3-0.2l3.1-5.6L137.1,37.3z"/>
	<path class="st0" d="M140.5,37.6c-0.3,0.4-0.7,0.8-1.3,1.4c0.5,0,1.1,0,1.6-0.1c0.5,0,1.2-0.1,2-0.1c-0.2-0.2-0.5-0.6-1-1
		c0.2-0.1,0.3-0.2,0.5-0.4c0.7,0.8,1.4,1.5,2,2.1c-0.2,0.1-0.4,0.3-0.6,0.4c-0.2-0.3-0.3-0.5-0.5-0.6c-1,0.1-2,0.1-2.9,0.2
		c-1,0.1-1.6,0.2-2,0.3c-0.1-0.4-0.2-0.6-0.3-0.8c0.3-0.1,0.6-0.4,1.1-0.8c0.5-0.5,0.9-1.1,1.3-1.7c0.3,0.2,0.5,0.4,0.7,0.4
		C141,37,140.8,37.3,140.5,37.6z M143.5,41.8c0,0.6,0,1.1,0,1.5h-0.6v-0.4h-3.6v0.4h-0.6c0-0.3,0-0.7,0-1.4c0-0.6,0-1.2,0-1.7h4.9
		C143.5,40.7,143.5,41.2,143.5,41.8z M142.9,42.4v-1.5h-3.6v1.5H142.9z"/>
</g>
<circle class="st0" cx="76.2" cy="20.4" r="1.7"/>
<circle class="st0" cx="115.2" cy="20.4" r="1.7"/>
<path class="st1" d="M35.4,10.2c0-0.4,0.1-0.9,0.2-1.3C32,6.6,27.4,5.7,23.1,5.7c-4.3,0-8.9,0.9-12.5,3.2c0.2,0.4,0.2,0.8,0.2,1.3
	c0,1.9-1.5,3.4-3.4,3.4c0.1,5.5,0.6,12.1,3.3,17.2c2.9,5.5,8.6,9.2,12.4,11c3.8-1.7,9.6-5.5,12.4-11c2.7-5,3.2-11.6,3.3-17.2
	C36.9,13.6,35.4,12.1,35.4,10.2z"/>
<g>
	<path class="st2" d="M38.8,13.7c0-0.1,0-0.1,0-0.2c-0.5,0-0.9-0.1-1.3-0.3C37.9,13.5,38.3,13.7,38.8,13.7z"/>
	<path class="st3" d="M11,30.9c-2.7-5-3.2-11.5-3.3-17.1c2.4-0.3,3.9-2.4,3.2-4.8c3.6-2.3,8.3-3.2,12.5-3.2c3.7,0,7.6,0.7,10.9,2.3
		C31,6.4,26.9,5.7,23.1,5.7c-4.3,0-8.9,0.9-12.5,3.2c0.2,0.4,0.2,0.8,0.2,1.3c0,1.9-1.5,3.4-3.4,3.4c0.1,5.5,0.6,12.1,3.3,17.2
		c2.7,5.1,7.8,8.7,11.6,10.6C18.5,39.4,13.6,35.9,11,30.9z"/>
</g>
<path class="st4" d="M32.8,10.3L16.5,34.2l7.2,7.2c3.8-1.9,9.1-5.5,11.8-10.7c2.2-4.3,3-9.7,3.2-14.6L32.8,10.3z"/>
<path class="st5" d="M23.1,38.9c-3.7-1.9-8-5.1-10.2-9.3c-2.2-4.1-2.8-9.6-2.9-14c2-1,3.3-3,3.4-5.3c2.7-1.3,6.1-2,9.7-2
	s7.1,0.7,9.7,2c0,2.3,1.4,4.3,3.4,5.3c-0.2,4.4-0.8,9.9-2.9,14C31.1,33.7,26.7,37,23.1,38.9z"/>
<g>
	<path class="st6" d="M27.1,19.3C27.1,19.3,27.1,19.3,27.1,19.3c-0.1,0-0.1-0.1-0.1-0.1C27,19.2,27,19.3,27.1,19.3z"/>
</g>
<path class="st7" d="M33.3,29.6c2.2-4.1,2.8-9.6,2.9-14c-2-1-3.3-3-3.4-5.3c-2.7-1.3-6.1-2-9.7-2v30.6C26.7,37,31.1,33.7,33.3,29.6z
	"/>
<path class="st3" d="M13.2,29.7c-2.2-4.1-2.8-9.6-2.9-14c2-1,3.3-3,3.4-5.3c2.7-1.3,6.1-2,9.7-2c3.6,0,6.9,0.7,9.5,1.9c0,0,0,0,0,0
	c-2.7-1.3-6.1-2-9.7-2s-7.1,0.7-9.7,2c0,2.3-1.4,4.3-3.4,5.3c0.2,4.4,0.8,9.9,2.9,14c2.1,3.9,6,7.1,9.5,9
	C19,36.6,15.2,33.5,13.2,29.7z"/>
<path class="st8" d="M30.4,24l-0.1-1.1L30,24l-1.3-0.8c0,0-0.1-0.8-0.3-1.1c-0.2-0.3-0.2-0.3-0.2-0.3l0,1L27,22
	c-0.1-0.6-0.3-1.6-0.8-2c1.1,2.5,0.7,4.5,0.1,7.1l-0.6-1.6l0.3-1.2L25.4,25l-0.7-1.7l0.4-1l-0.6,0.5l-0.7-1.6
	c-1.4,4.4-1.6,8.6-2.3,13h-2.1c1.3-4.5,1.6-8.9,3.7-13.1c-0.8,0.6-2,1.4-2.7,2.1l0-1c0,0-0.4,0.6-0.5,0.9c-0.1,0.3-0.2,0.4-0.2,0.4
	l-0.9,0.5l0.1-1l-0.6,1.2l-1.8,1.3c0.8-3.7,3.1-5.5,6.4-6.7L21.3,19L20,18.8l0.8-0.6c0,0-0.7,0.1-1,0.3c-0.3,0.1-0.4,0.2-0.4,0.2
	l-1.5,0l0.6-0.5c0,0-0.3,0-0.8,0.3c-0.4,0.2-0.5,0.3-0.5,0.3l-1.6,0c0,0,1.6-1.5,3-1.7s2.5,0.1,3.1,0.4c0.6,0.3,1.5,0.9,1.5,0.9
	s-0.5-1.1-0.9-1.4c-0.4-0.3-0.8-0.6-0.8-0.6l0.7-0.1L21,15.8L20.2,15l0.5,0l-1-0.4l-0.9-0.8c2.6,0,5.1,1.7,5.2,4.5
	c2.3-3.1,5.5-3.3,8.7-1.8L30.4,17L29,16.7l0.7,0.4l-1.3,0.4l-1.1-0.2l0.8,0.5l-1.8,0.6c2.4,1.3,5.3,3,5.7,6c0.1,0.5,0.1,0.5,0.1,0.5
	L30.4,24z"/>
<path class="st9" d="M13.4,30.4c0,0,6-2.4,9.3-0.4c3.4,1.9,10.1,1.2,10.1,1.2s-3.4,4.4-6.7,6.2c-3.3,1.8-3.2,1.5-3.2,1.5
	S16.3,34.7,13.4,30.4z"/>
</svg>
